# xmcd
#
# Track frame offsets: 
#        150
#        14891
#        25908
#        43392
#        67580
#        83498
#        98308
#        112411
#        124981
#        142266
#
# Disc length: 2136 seconds
#
# Revision: 0
# Processed by: cddbd v1.5.2PL0 Copyright (c) Steve Scherf et al.
# Submitted via: ExactAudioCopy v0.99pb5
#
DISCID=8a08560a
DTITLE=Preacher Keen - Heal Yourself (Or Die With The Blues)
DYEAR=2007
DGENRE=Blues
TTITLE0=Wild 4 U Bay
TTITLE1=The Joint Was Jumpin'
TTITLE2=Heal Yourself (Or Die With The Blues)
TTITLE3=Fast Love On The Boulevard
TTITLE4=Staing
TTITLE5=Hot Number
TTITLE6=All My Bay Left Me Was The Blues
TTITLE7=New Boots
TTITLE8=Lighten Up
TTITLE9=Sweet Sunday
EXTD=
EXTT0=
EXTT1=
EXTT2=
EXTT3=
EXTT4=
EXTT5=
EXTT6=
EXTT7=
EXTT8=
EXTT9=
PLAYORDER=
